<svg width="40" height="40" viewBox="0 0 40 40" fill="none" xmlns="http://www.w3.org/2000/svg">
<g clip-path="url(#clip0_24_14)">
<mask id="mask0_24_14" style="mask-type:luminance" maskUnits="userSpaceOnUse" x="0" y="0" width="40" height="40">
<path d="M40 0H0V40H40V0Z" fill="white"/>
</mask>
<g mask="url(#mask0_24_14)">
<path d="M19.8828 14.6787C16.8403 14.6787 14.6306 16.9805 14.6306 20.1499C14.6306 23.3556 16.7899 25.5931 19.8828 25.5931C22.9757 25.5931 25.1357 23.3556 25.1357 20.1499C25.1357 16.9805 22.9263 14.6787 19.8828 14.6787Z" fill="#D4AF37"/>
<path d="M20.0005 0.000976562C8.95419 0.000976562 0 8.95602 0 20.001C0 31.0453 8.95419 39.9994 20.0005 39.9994C31.0441 39.9994 40 31.0454 40 20.001C40 8.95602 31.0441 0.000976562 20.0005 0.000976562ZM28.2622 28.3485C26.7238 28.3485 25.5132 27.1959 25.2144 25.5625C25.2091 25.5688 25.2039 25.574 25.1986 25.5795C23.8398 26.9801 21.9525 27.7501 19.8829 27.7501C17.8143 27.7501 15.9262 26.9801 14.5677 25.5795C13.2173 24.187 12.4737 22.2596 12.4737 20.1499C12.4737 18.0409 13.2166 16.1089 14.5659 14.7094C15.9261 13.2983 17.8148 12.5216 19.8829 12.5216C21.952 12.5216 23.8399 13.2983 25.2007 14.7094C25.2022 14.711 25.2035 14.7126 25.205 14.7141C25.3542 14.2954 25.7532 13.9946 26.2238 13.9946C26.8184 13.9946 27.3029 14.4771 27.3029 15.073V24.7703C27.3029 25.6928 27.7969 26.1913 28.2622 26.1913C29.6897 26.1913 30.6885 23.7849 30.6885 20.3407C30.6885 14.0048 26.2396 9.40674 20.1073 9.40674C13.8513 9.40674 9.31246 13.9705 9.31246 20.2591C9.31246 26.248 13.7033 30.5937 19.7553 30.5937C21.0925 30.5937 22.9662 30.1346 24.112 29.5243C24.6389 29.2449 25.2926 29.4447 25.5723 29.9705C25.8513 30.4959 25.6515 31.1499 25.1248 31.4292C23.6863 32.1957 21.4263 32.7515 19.7553 32.7515C16.2486 32.7515 13.0451 31.4933 10.7386 29.2087C8.42806 26.9204 7.15523 23.7412 7.15523 20.2591C7.15523 16.6331 8.45847 13.3248 10.8268 10.9439C13.1994 8.56146 16.495 7.24952 20.1073 7.24952C23.6625 7.24952 26.9074 8.57311 29.2383 10.974C31.5646 13.3679 32.845 16.6945 32.845 20.3407C32.845 25.2056 31.0453 28.3485 28.2622 28.3485Z" fill="#D4AF37"/>
</g>
</g>
<defs>
<clipPath id="clip0_24_14">
<rect width="40" height="40" fill="white"/>
</clipPath>
</defs>
</svg>
