<svg width="244" height="229" viewBox="0 0 244 229" fill="none" xmlns="http://www.w3.org/2000/svg">
<path fill-rule="evenodd" clip-rule="evenodd" d="M121.627 22.8333C103.94 22.8333 88.289 34.2853 82.9374 51.1428L73.8028 79.9167H81.6679H161.585H169.45L160.316 51.1428C154.963 34.2853 139.312 22.8333 121.627 22.8333ZM193.406 79.9167L182.078 44.2339C173.716 17.8938 149.262 0 121.627 0C93.9908 0 69.5363 17.8938 61.1744 44.2339L49.8465 79.9167H22.8485C7.52691 79.9167 -3.44691 94.7081 0.996461 109.372L13.8315 151.727L29.6765 204.016C34.0527 218.458 47.3647 228.333 62.4547 228.333H98.7929H144.46H180.798C195.888 228.333 209.199 218.458 213.575 204.016L229.421 151.727L242.256 109.372C246.7 94.7081 235.726 79.9167 220.404 79.9167H193.406ZM58.2004 102.75H22.8485L33.2273 137H76.3728L71.7024 102.75H58.2004ZM94.747 102.75L99.4179 137H143.834L148.505 102.75H94.747ZM171.55 102.75L166.88 137H210.025L220.404 102.75H185.052H171.55ZM203.106 159.833H163.766L157.539 205.5H180.798C185.828 205.5 190.265 202.209 191.724 197.394L203.106 159.833ZM134.495 205.5L140.721 159.833H102.531L108.758 205.5H134.495ZM85.7138 205.5L79.4865 159.833H40.1465L51.5286 197.394C52.9873 202.209 57.4247 205.5 62.4547 205.5H85.7138Z" fill="#D4AF37"/>
</svg>
